solid OpenSCAD_Model
  facet normal -1 0 0
    outer loop
      vertex 0 0 0
      vertex 0 0 32
      vertex 0 39 32
    endloop
  endfacet
  facet normal 0 0 1
    outer loop
      vertex 0 0 32
      vertex 2 2 32
      vertex 2 37 32
    endloop
  endfacet
  facet normal 0 -1 0
    outer loop
      vertex 0 0 0
      vertex 39 0 32
      vertex 0 0 32
    endloop
  endfacet
  facet normal 0 0 1
    outer loop
      vertex 0 0 32
      vertex 37 2 32
      vertex 2 2 32
    endloop
  endfacet
  facet normal -1 0 0
    outer loop
      vertex 0 0 0
      vertex 0 39 32
      vertex 0 39 0
    endloop
  endfacet
  facet normal 0 0 -1
    outer loop
      vertex 0 0 0
      vertex 0 39 0
      vertex 39 39 0
    endloop
  endfacet
  facet normal 0 1 0
    outer loop
      vertex 0 39 0
      vertex 0 39 32
      vertex 39 39 0
    endloop
  endfacet
  facet normal 0 0 1
    outer loop
      vertex 0 0 32
      vertex 2 37 32
      vertex 0 39 32
    endloop
  endfacet
  facet normal 0 0 1
    outer loop
      vertex 0 39 32
      vertex 2 37 32
      vertex 39 39 32
    endloop
  endfacet
  facet normal 0 -1 0
    outer loop
      vertex 0 0 0
      vertex 39 0 0
      vertex 39 0 32
    endloop
  endfacet
  facet normal 0 0 -1
    outer loop
      vertex 0 0 0
      vertex 39 39 0
      vertex 39 0 0
    endloop
  endfacet
  facet normal 1 0 0
    outer loop
      vertex 39 0 0
      vertex 39 39 0
      vertex 39 0 32
    endloop
  endfacet
  facet normal 0 0 1
    outer loop
      vertex 0 0 32
      vertex 39 0 32
      vertex 37 2 32
    endloop
  endfacet
  facet normal 0 0 1
    outer loop
      vertex 39 0 32
      vertex 39 39 32
      vertex 37 2 32
    endloop
  endfacet
  facet normal 0 1 0
    outer loop
      vertex 0 39 32
      vertex 39 39 32
      vertex 39 39 0
    endloop
  endfacet
  facet normal 0 0 1
    outer loop
      vertex 39 39 32
      vertex 2 37 32
      vertex 37 37 32
    endloop
  endfacet
  facet normal 1 0 0
    outer loop
      vertex 39 0 32
      vertex 39 39 0
      vertex 39 39 32
    endloop
  endfacet
  facet normal 0 0 1
    outer loop
      vertex 39 39 32
      vertex 37 37 32
      vertex 37 2 32
    endloop
  endfacet
  facet normal 0 1 0
    outer loop
      vertex 2 2 2
      vertex 2 2 32
      vertex 37 2 2
    endloop
  endfacet
  facet normal 1 0 0
    outer loop
      vertex 2 2 2
      vertex 2 37 32
      vertex 2 2 32
    endloop
  endfacet
  facet normal 1 0 0
    outer loop
      vertex 2 2 2
      vertex 2 37 2
      vertex 2 37 32
    endloop
  endfacet
  facet normal 0 0 1
    outer loop
      vertex 2 2 2
      vertex 37 37 2
      vertex 2 37 2
    endloop
  endfacet
  facet normal 0 -1 0
    outer loop
      vertex 2 37 2
      vertex 37 37 32
      vertex 2 37 32
    endloop
  endfacet
  facet normal 0 0 1
    outer loop
      vertex 2 2 2
      vertex 37 2 2
      vertex 37 37 2
    endloop
  endfacet
  facet normal -1 0 0
    outer loop
      vertex 37 2 2
      vertex 37 2 32
      vertex 37 37 2
    endloop
  endfacet
  facet normal 0 1 0
    outer loop
      vertex 37 2 2
      vertex 2 2 32
      vertex 37 2 32
    endloop
  endfacet
  facet normal 0 -1 0
    outer loop
      vertex 2 37 2
      vertex 37 37 2
      vertex 37 37 32
    endloop
  endfacet
  facet normal -1 0 0
    outer loop
      vertex 37 37 2
      vertex 37 2 32
      vertex 37 37 32
    endloop
  endfacet
endsolid OpenSCAD_Model
